<svg width="92" height="280" viewBox="0 0 92 280" fill="none" xmlns="http://www.w3.org/2000/svg">
<g filter="url(#filter0_i_2_2)">
<path fill-rule="evenodd" clip-rule="evenodd" d="M31.5692 10.459C32.2762 6.29168 35.4976 0.237784 45.161 0.00195312C45.1739 0.00163878 45.2594 0.0012597 45.3415 0.000895791C45.4163 0.000564535 45.4882 0.000245848 45.4999 0C45.5116 0.000274402 45.6384 0.000598736 45.7698 0.000935144C45.911 0.00129631 46.0575 0.00167139 46.0731 0.00198013C55.7366 0.237804 58.9589 6.2917 59.6659 10.459C60.7606 16.9121 59.3511 20.4618 57.6057 24.8577C57.0584 26.2362 56.4781 27.6979 55.9315 29.3584C55.5761 30.4388 55.4044 32.0419 55.3544 33.835V33.8467V33.8489C55.3543 34.774 55.3543 37.7315 55.9315 39.4746C56.5124 41.2266 63.5768 44.7293 63.9872 44.9053C64.0757 44.9433 64.4906 45.1567 65.1011 45.4709C67.1023 46.5007 71.2055 48.612 72.8055 49.167L74.329 49.6436C75.3183 49.9614 76.2764 50.2202 77.2007 50.47C81.029 51.5042 84.2777 52.382 86.7635 56.6436C89.742 61.7501 93.0194 121.482 90.0926 141.384C90.0926 141.754 90.0223 142.739 89.7421 143.72C89.4297 144.813 89.4422 145.907 89.4486 146.462C89.4494 146.53 89.4501 146.589 89.4501 146.64C89.4501 146.815 89.4666 147.107 89.4873 147.471C89.5216 148.074 89.5672 148.875 89.5672 149.677C89.5674 150.24 89.7911 151.541 90.023 152.89C90.3208 154.622 90.6321 156.432 90.5008 156.859C89.4496 160.247 85.9458 164.451 85.537 164.51C85.4478 164.523 85.3526 164.572 85.239 164.63C84.8318 164.84 84.1877 165.172 82.7342 164.394C82.7026 164.377 82.6724 164.356 82.6434 164.332C82.6215 164.216 82.5873 164.105 82.535 164C82.2017 163.167 81.835 161.2 83.035 160C84.535 158.5 85.035 157 85.035 156C85.035 153.745 83.6376 151.141 82.535 155C82.1351 156.4 81.7326 157.559 81.3006 158.479C81.2805 158.47 81.259 158.476 81.2352 158.5C80.4986 159.237 78.6811 160.109 79.0692 158.071C79.5075 155.77 80.231 153.648 80.9317 151.592C82.0644 148.269 83.1374 145.121 82.8505 141.676V141.733C82.8464 130.811 80.5948 119.991 78.3243 109.08C76.0131 97.9733 73.6823 86.7723 73.6825 75.2735C73.5123 75.5926 73.3326 75.9253 73.1459 76.2711C71.2826 79.7211 68.7203 84.4655 67.9003 89.9326C66.998 95.948 66.2657 108.621 66.5575 113.644C66.5575 116.211 66.9306 118.244 67.0657 118.98C67.0719 119.014 67.0777 119.046 67.0829 119.074C67.1997 119.717 67.4335 120.651 67.7255 121.41C67.7951 121.591 67.9443 121.951 68.136 122.414C68.7485 123.892 69.7945 126.417 70.0614 127.484C70.1481 127.831 70.3669 128.481 70.6515 129.327C71.518 131.902 72.9949 136.291 73.2147 139.456C73.2558 139.768 73.3407 140.348 73.4583 141.15C74.1772 146.057 76.1173 159.299 76.7196 170.643C76.9905 175.745 77.1166 182.599 77.2314 188.844C77.3558 195.609 77.4671 201.66 77.7352 204C77.9233 205.641 78.3052 207.591 78.7145 209.681C79.4274 213.32 80.2235 217.384 80.2235 220.983C80.2235 231.183 76.9703 246.586 75.4401 253.831C75.0252 255.796 74.737 257.161 74.6747 257.659C74.6187 258.135 74.5421 258.678 74.4601 259.26C74.1196 261.675 73.6849 264.757 74.2352 266.5C74.8562 268.466 76.6349 269.935 78.4426 271.428C80.1002 272.797 81.7822 274.186 82.618 275.997C84.0195 279.034 79.23 279.676 77.9452 279.793C76.659 279.91 67.4924 280.027 65.4481 278.684C63.6785 277.521 63.8348 276.139 63.9086 275.486C63.9201 275.385 63.9295 275.301 63.9296 275.238C63.9296 275.079 64.0514 274.561 64.2121 273.878C64.5234 272.554 64.9803 270.611 64.9803 269.456C64.9803 268.104 64.9512 266.756 64.922 265.41C64.8931 264.069 64.8641 262.732 64.8641 261.397C64.8641 256.045 63.6411 251.303 62.3895 246.449C61.078 241.364 59.7352 236.157 59.7352 230C59.7352 227.537 59.8174 225.006 59.8993 222.485C60.1031 216.212 60.3051 209.993 59.2352 205C56.8895 198.745 55.0717 191.216 53.2269 183.576C52.7123 181.445 52.1957 179.306 51.6649 177.183C51.3717 176.009 45.6752 150.935 45.4999 150C45.3247 150.934 39.8622 176.016 39.5702 177.184C39.0396 179.306 38.5232 181.445 38.0088 183.575C36.1638 191.215 34.3458 198.744 31.9999 205C30.9299 209.993 31.1319 216.211 31.3357 222.485C31.4177 225.006 31.4999 227.537 31.4999 230C31.4999 236.157 30.157 241.364 28.8456 246.45C27.594 251.303 26.371 256.046 26.371 261.397C26.3709 262.732 26.3418 264.07 26.3125 265.41C26.2832 266.756 26.2538 268.104 26.2538 269.456C26.2538 270.611 26.7112 272.554 27.0227 273.878C27.1836 274.561 27.3055 275.079 27.3055 275.238C27.3056 275.301 27.315 275.385 27.3264 275.486C27.4003 276.139 27.5564 277.521 25.787 278.684C23.7429 280.027 14.5737 279.91 13.2889 279.793C12.0039 279.676 7.21547 279.034 8.61705 275.997C9.4529 274.186 11.1348 272.797 12.7924 271.428C14.6001 269.935 16.3789 268.466 16.9999 266.5C17.5499 264.758 17.1152 261.677 16.7745 259.263C16.6923 258.68 16.6155 258.136 16.5594 257.659C16.4971 257.161 16.209 255.796 15.7942 253.832C14.2643 246.587 11.0116 231.183 11.0116 220.983C11.0116 217.384 11.8077 213.32 12.5206 209.681C12.9299 207.591 13.3118 205.641 13.4999 204C13.7679 201.66 13.8792 195.609 14.0037 188.844C14.1185 182.599 14.2446 175.745 14.5155 170.643C15.1179 159.297 17.0578 146.053 17.7762 141.148C17.8936 140.346 17.9784 139.768 18.0194 139.456C18.2392 136.291 19.7163 131.903 20.5831 129.328C20.868 128.482 21.087 127.831 21.1737 127.484C21.4406 126.417 22.4866 123.892 23.0991 122.414C23.2908 121.951 23.44 121.591 23.5096 121.41C23.8016 120.651 24.0354 119.717 24.1522 119.074C24.1574 119.046 24.1631 119.014 24.1694 118.98C24.3044 118.244 24.6776 116.211 24.6776 113.644C24.9694 108.621 24.2361 95.948 23.3338 89.9326C22.5135 84.4639 19.9508 79.7184 18.0876 76.2681C17.9015 75.9234 17.7223 75.5917 17.5526 75.2734C17.5528 86.7722 15.2217 97.9733 12.9103 109.08C10.6395 119.991 8.38771 130.811 8.38365 141.733V141.676C8.09668 145.12 9.16995 148.268 10.3028 151.591C11.0037 153.647 11.7275 155.77 12.1659 158.071C12.4934 159.791 11.2517 159.436 10.4129 158.841C9.91158 157.87 9.45429 156.591 8.99986 155C7.89724 151.141 6.49986 153.745 6.49986 156C6.49989 157 6.99991 158.5 8.49986 160C9.56173 161.062 9.39616 162.724 9.11314 163.67C8.9921 164.037 8.80459 164.354 8.49986 164.51C6.62058 165.469 5.99956 165 5.69713 164.51C5.65899 164.448 5.51608 164.28 5.30045 164.025C4.27438 162.813 1.60157 159.657 0.733259 156.859C0.602175 156.432 0.913655 154.622 1.21163 152.89C1.44378 151.541 1.66772 150.24 1.66783 149.677C1.66783 148.875 1.71343 148.074 1.74774 147.47C1.76843 147.107 1.78501 146.815 1.78502 146.64C1.78502 146.589 1.7857 146.53 1.78647 146.462C1.79285 145.907 1.80541 144.813 1.49302 143.72C1.21279 142.739 1.14248 141.754 1.14244 141.384C-1.78433 121.482 1.49213 61.7501 4.47056 56.6436C6.95631 52.3818 10.2051 51.5042 14.0334 50.4699C14.9577 50.2202 15.9158 49.9614 16.9051 49.6436L18.4286 49.167C20.0284 48.6121 24.1318 46.5007 26.1331 45.4708C26.7431 45.1569 27.1578 44.9435 27.2469 44.9053C27.6557 44.7301 34.7214 41.2268 35.3026 39.4746C35.8803 37.7301 35.8807 34.7692 35.8807 33.8467V33.835C35.8307 32.0417 35.6581 30.4388 35.3026 29.3584C34.7562 27.6984 34.1761 26.237 33.629 24.8589C31.8836 20.4624 30.4744 16.9127 31.5692 10.459Z" fill="#43CFFF" fill-opacity="0.05"/>
</g>
<path d="M47.9391 125.989C47.6062 127.513 47.3289 141.621 47.3289 144.961C47.3289 147.305 48.9376 148.301 50.3244 148.301C51.7113 148.301 52.7653 147.364 53.431 145.605C54.0966 143.847 56.9915 132.084 56.825 129.915C56.6586 127.747 56.0382 124.465 55.1506 123.996C54.2631 123.528 50.3799 123.117 49.4923 123.352C48.6048 123.586 48.2719 124.465 47.9391 125.989Z" fill="white" fill-opacity="0.05"/>
<path d="M44.589 125.755C44.9244 127.291 45.2039 141.57 45.2039 144.936C45.2039 147.298 43.5829 148.302 42.1855 148.302C40.7881 148.302 39.7261 147.357 39.0553 145.585C38.3846 143.814 35.4606 131.896 35.6283 129.712C35.796 127.527 36.4282 124.22 37.3225 123.748C38.2169 123.275 42.1296 122.862 43.0239 123.098C43.9183 123.334 44.2536 124.22 44.589 125.755Z" fill="white" fill-opacity="0.05"/>
<path d="M36.3807 114.58C37.239 113.962 42.3884 112.876 44.2404 114.155C45.2793 115.43 45.1438 119.444 43.6532 120.294C42.1626 121.144 37.6455 121.38 36.3807 120.294C35.1159 119.207 35.5486 115.178 36.3807 114.58Z" fill="white" fill-opacity="0.05"/>
<path d="M56.2478 114.58C55.3895 113.962 50.24 112.876 48.388 114.155C47.3491 115.43 47.4846 119.444 48.9753 120.294C50.4659 121.144 54.983 121.38 56.2478 120.294C57.5125 119.207 57.0798 115.178 56.2478 114.58Z" fill="white" fill-opacity="0.05"/>
<path d="M87.4007 129.569C91.6574 118.441 91.2377 106.514 89.9787 99.5662C87.1609 104.915 82.5897 110.022 81.8703 114.203C81.1509 118.384 80.6037 121.945 82.7843 129.446C84.7639 134.057 84.4169 140.069 85.4293 143.949C86.9822 138.607 86.0229 134.119 87.4007 129.569Z" fill="white" fill-opacity="0.05"/>
<path d="M5.40156 130.138C1.1965 119.145 1.61107 107.362 2.85483 100.499C5.63846 105.783 10.1542 110.829 10.8649 114.959C11.5756 119.089 12.1162 122.607 9.96199 130.017C8.0064 134.572 8.34916 140.511 7.34911 144.344C5.81502 139.066 6.76264 134.633 5.40156 130.138Z" fill="white" fill-opacity="0.05"/>
<path d="M81.6636 76.0103C78.7289 73.2003 76.9743 74.8414 76.1533 77.7689C75.6426 79.5896 75.6846 82.8694 76.1533 86.8555C76.7776 92.1649 78.2636 96.3519 80.8429 98.638C81.3926 99.1252 84.4773 102.331 85.9428 93.5968C87.4083 84.8624 83.0707 77.3591 81.6636 76.0103Z" fill="white" fill-opacity="0.05"/>
<path d="M11.3291 75.9922C14.3066 73.2297 16.0288 74.9035 16.7968 77.849C17.2745 79.6809 17.1753 82.9641 16.6379 86.9472C15.9222 92.2525 14.3662 96.4189 11.7525 98.6631C11.1955 99.1413 8.06138 102.298 6.7517 93.5266C5.44201 84.7556 9.90144 77.3182 11.3291 75.9922Z" fill="white" fill-opacity="0.05"/>
<path d="M48.992 56.8931C47.4487 59.4026 47.7345 68.5852 47.7345 73.205C48.4204 75.6573 50.2495 78.6233 53.9648 79.0226C57.6801 79.4218 78.0285 74.0606 78.4286 70.7526C78.8287 67.4446 77.4569 64.764 75.5135 61.9693C73.4278 58.97 69.7405 55.3532 67.5685 55.011C65.3965 54.6688 50.5353 54.3836 48.992 56.8931Z" fill="white" fill-opacity="0.05"/>
<path d="M43.6364 56.8931C45.1797 59.4026 44.8939 68.5852 44.8939 73.205C44.208 75.6573 42.379 78.6233 38.6637 79.0226C34.9484 79.4218 14.6 74.0606 14.1999 70.7526C13.7998 67.4446 15.1716 64.764 17.115 61.9693C19.2006 58.97 22.888 55.3532 25.06 55.011C27.232 54.6688 42.0932 54.3836 43.6364 56.8931Z" fill="white" fill-opacity="0.05"/>
<path d="M34.1869 44.0606C31.8548 44.527 25.3247 48.2585 22.5261 50.5906C22.5261 51.9897 30.4555 53.3895 32.3212 52.923C34.1869 52.4566 36.5191 48.7249 36.9855 47.792C37.452 46.8592 36.5191 43.5942 34.1869 44.0606Z" fill="white" fill-opacity="0.05"/>
<path d="M44.4477 51.5236C44.4477 50.1243 41.1826 42.6614 40.2498 41.2621C37.4512 39.8628 36.9848 41.7285 36.5183 42.6614C36.5183 43.1278 40.7162 52.4564 42.1155 52.9229C43.5148 53.3893 44.4477 52.9229 44.4477 51.5236Z" fill="white" fill-opacity="0.05"/>
<path d="M58.1924 44C60.5742 44.4764 67.2432 48.2872 70.1013 50.669C70.1013 52.0979 62.0033 53.5274 60.0979 53.051C58.1924 52.5747 55.8106 48.7636 55.3343 47.8109C54.8579 46.8582 55.8106 43.5237 58.1924 44Z" fill="white" fill-opacity="0.05"/>
<path d="M47.713 51.6215C47.713 50.1924 51.0475 42.5707 52.0002 41.1417C54.8584 39.7126 55.3347 41.618 55.8111 42.5707C55.8111 43.0471 51.5239 52.5742 50.0948 53.0506C48.6657 53.5269 47.713 53.0506 47.713 51.6215Z" fill="white" fill-opacity="0.05"/>
<path d="M9.08784 53.4456C10.0258 52.6249 12.605 51.687 16.767 51.687C17.2946 52.5663 20.9139 53.4456 22.9655 54.3249C19.507 55.2042 15.5293 60.3862 14.7689 62.1213C14.0545 63.7516 10.5533 69.566 9.73265 70.7384C8.91198 71.9108 7.79821 73.1418 4.69137 74.5487C3.05002 66.3419 3.92931 64.2902 4.69137 61.0662C5.45342 57.8421 8.14992 54.2663 9.08784 53.4456Z" fill="white" fill-opacity="0.05"/>
<path d="M83.5841 53.7124C82.6728 52.9087 80.167 51.9902 76.1234 51.9902C75.6109 52.8513 72.0946 53.7124 70.1013 54.5736C73.4615 55.4347 77.326 60.5094 78.0647 62.2087C78.7588 63.8052 82.1603 69.4994 82.9576 70.6475C83.7549 71.7957 84.837 73.0012 87.8554 74.379C89.45 66.342 88.5958 64.3327 87.8554 61.1754C87.115 58.018 84.4953 54.5161 83.5841 53.7124Z" fill="white" fill-opacity="0.05"/>
<path d="M89.2259 88.0315C89.2845 84.8074 87.9362 78.7696 87.4673 76.0731L83.1294 74.2559C84.8252 76.5949 85.7044 79.8673 86.7561 83.7821L86.7638 83.8109C87.819 87.7384 87.4673 93.2486 87.1742 97.352C89.05 95.3589 89.1672 91.2556 89.2259 88.0315Z" fill="white" fill-opacity="0.05"/>
<path d="M3.40345 88.0194C3.34485 84.8117 4.69269 78.8045 5.1615 76.1217L9.49804 74.3137C7.80274 76.6409 6.92386 79.8967 5.87245 83.7916L5.86473 83.8202C4.80989 87.7278 5.1615 93.2101 5.45451 97.2926C3.57925 95.3097 3.46205 91.2271 3.40345 88.0194Z" fill="white" fill-opacity="0.05"/>
<path d="M58.808 89.1606C60.4522 87.5549 59.8897 81.5986 58.808 80.7136C58.0407 80.0859 54.3849 80.9073 51.8002 81.4629C50.5125 81.4988 49.3423 79.4951 48.5904 80.0853C47.2398 81.9706 47.4159 87.904 49.3537 89.1606C51.2916 90.4172 57.1638 90.7663 58.808 89.1606Z" fill="white" fill-opacity="0.05"/>
<path d="M57.1012 93.3786C56.1571 92.6067 50.4927 91.2494 48.4555 92.8473C47.3127 94.4414 47.4617 99.4583 49.1014 100.521C50.7411 101.583 55.7099 101.879 57.1012 100.521C58.4924 99.1632 58.0164 94.1269 57.1012 93.3786Z" fill="white" fill-opacity="0.05"/>
<path d="M56.2478 104.445C55.3895 103.751 50.24 102.529 48.388 103.967C47.3491 105.402 47.4846 109.917 48.9753 110.873C50.4659 111.83 54.983 112.095 56.2478 110.873C57.5125 109.652 57.0798 105.119 56.2478 104.445Z" fill="white" fill-opacity="0.05"/>
<path d="M33.8204 89.1653C32.1762 87.5666 32.7388 81.6362 33.8204 80.755C34.5158 80.1886 38.2332 81.5504 40.8742 81.4577C42.4706 81.4017 43.131 79.4206 44.0381 80.1295C45.3887 82.0065 45.2125 87.9141 43.2747 89.1653C41.3369 90.4165 35.4647 90.764 33.8204 89.1653Z" fill="white" fill-opacity="0.05"/>
<path d="M35.5273 93.3786C36.4714 92.6067 42.1358 91.2494 44.173 92.8473C45.3158 94.4414 45.1667 99.4583 43.527 100.521C41.8873 101.583 36.9185 101.879 35.5273 100.521C34.136 99.1632 34.612 94.1269 35.5273 93.3786Z" fill="white" fill-opacity="0.05"/>
<path d="M36.3807 104.445C37.239 103.751 42.3884 102.529 44.2404 103.967C45.2793 105.402 45.1438 109.917 43.6532 110.873C42.1626 111.83 37.6455 112.095 36.3807 110.873C35.1159 109.652 35.5486 105.119 36.3807 104.445Z" fill="white" fill-opacity="0.05"/>
<path d="M71.0517 76.327C70.0506 75.7381 65.5752 78.4469 64.1619 79.7424C64.1619 80.9199 66.694 84.6303 67.224 86.9269C67.4596 84.9836 72.0527 76.9158 71.0517 76.327Z" fill="white" fill-opacity="0.05"/>
<path d="M66.2225 89.8997C66.2225 87.8694 63.4548 79.7799 61.6882 81.3109C62.277 84.8439 61.6882 87.906 60.8637 89.8493C60.8637 91.7926 61.4526 96.798 59.3327 100.743C59.7449 103.393 59.8627 107.103 58.9793 109.518C59.3327 111.225 60.2749 115.23 60.1571 117.585C60.0393 119.941 61.8059 118.881 62.1592 118.645C62.5126 118.409 65.8102 116.643 65.8102 115.406C63.9259 101.509 64.9858 96.3181 66.2225 89.8997Z" fill="white" fill-opacity="0.05"/>
<path d="M21.7352 77.2765C22.735 76.6883 27.2045 79.3936 28.616 80.6874C28.616 81.8634 26.0872 85.5689 25.5579 87.8625C25.3226 85.9218 20.7354 77.8646 21.7352 77.2765Z" fill="white" fill-opacity="0.05"/>
<path d="M26.5571 90.8313C26.5571 88.8036 29.3212 80.7246 31.0855 82.2537C30.4974 85.782 31.0855 88.8402 31.9089 90.7809C31.9089 92.7216 31.3208 97.7205 33.4379 101.661C33.0263 104.307 32.9086 108.012 33.7908 110.424C33.4379 112.129 32.497 116.128 32.6146 118.48C32.7322 120.833 30.9679 119.774 30.615 119.539C30.2622 119.304 26.9688 117.54 26.9688 116.305C28.8507 102.425 27.7921 97.2413 26.5571 90.8313Z" fill="white" fill-opacity="0.05"/>
<path d="M72.9001 151.34C73.3665 146.676 70.5679 133.149 68.2357 129.418C66.8365 123.82 63.105 149.941 63.105 153.206C63.105 156.471 68.1691 179.792 68.7022 177.926C70.5679 171.396 72.4336 156.004 72.9001 151.34Z" fill="white" fill-opacity="0.05"/>
<path d="M61.7061 192.853C59.8404 191.92 57.0418 187.256 56.1089 180.726C56.1089 177.46 59.8404 154.139 61.7061 158.337C62.9769 161.196 65.4375 171.863 67.3033 179.793C69.1319 187.564 63.5718 193.786 61.7061 192.853Z" fill="white" fill-opacity="0.05"/>
<path d="M73.367 190.521C72.4341 189.588 71.0348 186.789 69.6355 179.326C70.1019 175.595 72.9005 159.27 74.2998 157.87C78.0313 184.923 74.2998 191.453 73.367 190.521Z" fill="white" fill-opacity="0.05"/>
<path d="M19.8632 151.34C19.4107 146.676 22.1253 133.149 24.3875 129.418C25.7447 123.82 29.3642 149.941 29.3642 153.206C29.3642 156.471 24.4521 179.792 23.935 177.926C22.1253 171.396 20.3156 156.004 19.8632 151.34Z" fill="white" fill-opacity="0.05"/>
<path d="M30.7212 192.853C32.5309 191.92 35.2455 187.256 36.1503 180.726C36.1503 177.46 32.5309 154.139 30.7212 158.337C29.4885 161.196 27.1017 171.863 25.292 179.793C23.5183 187.564 28.9115 193.786 30.7212 192.853Z" fill="white" fill-opacity="0.05"/>
<path d="M19.4108 190.521C20.3156 189.588 21.6729 186.789 23.0302 179.326C22.5778 175.595 19.8632 159.27 18.5059 157.87C14.8865 184.923 18.5059 191.453 19.4108 190.521Z" fill="white" fill-opacity="0.05"/>
<path d="M78.0311 235.298C77.0982 238.563 74.2996 248.358 72.4339 263.284C70.5682 254.422 71.9525 238.262 72.4339 232.966C72.9003 227.835 74.2996 217.574 76.1654 209.644C79.8968 215.241 78.964 232.033 78.0311 235.298Z" fill="white" fill-opacity="0.05"/>
<path d="M67.7697 236.231C66.8368 234.832 64.0383 220.373 63.5718 215.708C62.1725 218.507 62.1725 224.571 62.1725 227.836C62.1726 231.134 62.639 239.496 64.0383 243.228C64.5047 241.362 64.9711 237.164 67.7697 236.231Z" fill="white" fill-opacity="0.05"/>
<path d="M67.7699 239.03C67.7699 241.828 68.2364 250.69 67.7699 261.418C66.3706 258.62 64.9714 250.224 64.9714 246.026C64.9714 241.828 67.7699 236.231 67.7699 239.03Z" fill="white" fill-opacity="0.05"/>
<path d="M14.9697 235.291C15.9081 238.576 18.7232 248.429 20.5999 263.442C22.4767 254.528 21.0842 238.273 20.5999 232.946C20.1308 227.785 18.7232 217.463 16.8465 209.486C13.093 215.117 14.0314 232.007 14.9697 235.291Z" fill="white" fill-opacity="0.05"/>
<path d="M25.2914 236.23C26.2297 234.822 29.0448 220.278 29.514 215.586C30.9216 218.401 30.9216 224.5 30.9216 227.785C30.9215 231.102 30.4524 239.514 29.0448 243.268C28.5757 241.391 28.1065 237.168 25.2914 236.23Z" fill="white" fill-opacity="0.05"/>
<path d="M25.2913 239.045C25.2913 241.86 24.8221 250.774 25.2913 261.566C26.6988 258.75 28.1064 250.305 28.1064 246.082C28.1064 241.86 25.2913 236.23 25.2913 239.045Z" fill="white" fill-opacity="0.05"/>
<path d="M64.7501 131.375C65.1582 130.851 66.8573 126.141 66.6249 128C66.4009 129.792 61.7962 140.206 59.1249 150.875C56.2545 162.34 55.4021 180.071 54.6252 181.625C54.4371 181.751 54.9727 178.459 55.0001 173.75C55.0406 166.821 52.8439 164.75 56.4999 150.125C57.1762 147.42 62.1251 134.75 64.7501 131.375Z" fill="white" fill-opacity="0.05"/>
<path d="M28.3554 131.106C27.9561 130.575 26.2937 125.805 26.521 127.688C26.7402 129.503 31.2457 140.049 33.8594 150.855C36.668 162.466 37.502 180.423 38.2622 181.997C38.4462 182.124 37.9222 178.79 37.8953 174.021C37.8558 167.004 40.0051 164.907 36.4279 150.095C35.7662 147.355 30.9238 134.524 28.3554 131.106Z" fill="white" fill-opacity="0.05"/>
<defs>
<filter id="filter0_i_2_2" x="0" y="0" width="91.2349" height="280.871" filterUnits="userSpaceOnUse" color-interpolation-filters="sRGB">
<feFlood flood-opacity="0" result="BackgroundImageFix"/>
<feBlend mode="normal" in="SourceGraphic" in2="BackgroundImageFix" result="shape"/>
<feColorMatrix in="SourceAlpha" type="matrix" values="0 0 0 0 0 0 0 0 0 0 0 0 0 0 0 0 0 0 127 0" result="hardAlpha"/>
<feOffset dy="1.01149"/>
<feGaussianBlur stdDeviation="1.21379"/>
<feComposite in2="hardAlpha" operator="arithmetic" k2="-1" k3="1"/>
<feColorMatrix type="matrix" values="0 0 0 0 1 0 0 0 0 1 0 0 0 0 1 0 0 0 0.5 0"/>
<feBlend mode="normal" in2="shape" result="effect1_innerShadow_2_2"/>
</filter>
</defs>
</svg>
