<svg width="67" height="120" viewBox="0 0 67 120" fill="none" xmlns="http://www.w3.org/2000/svg">
<path d="M41.5221 4.31733C40.1211 5.45763 36.5608 8.75707 34.9147 12.6203L34.9062 12.6403C34.2569 14.1645 33.0842 16.9176 33.6308 20.7659C34.1751 24.5973 35.4953 26.033 36.6086 27.2205C37.4512 28.1192 45.3892 31.6439 50.3283 27.2205C55.2674 22.7971 55.888 16.1619 55.888 13.9502C55.888 11.7385 55.2674 5.10141 50.3283 2.8897C45.3892 0.677979 43.2762 2.88957 41.5221 4.31733Z" fill="#0FE498"/>
<path d="M24.3886 4.39637C25.7857 5.53317 29.3361 8.82248 30.9776 12.6738L30.9861 12.6937C31.6336 14.2134 32.8031 16.958 32.258 20.7944C31.7152 24.6141 30.3986 26.0454 29.2884 27.2292C28.4482 28.1252 20.5321 31.6391 15.6067 27.2292C10.6813 22.8194 10.0624 16.2046 10.0624 13.9997C10.0624 11.7947 10.6813 5.17805 15.6067 2.97312C20.5321 0.768196 22.6393 2.97299 24.3886 4.39637Z" fill="#0FE498"/>
<path d="M40.2301 58.5715C39.9963 56.8758 37.7743 35.3581 38.3006 30.2125C37.6573 29.8617 35.6694 28.349 33.4474 28.3472C34.4415 35.3053 40.464 60.2672 40.2301 58.5715Z" fill="#0FE498"/>
<path d="M58.4733 19.0919C57.6788 16.5788 55.7843 26.5374 52.1005 28.4752C52.1005 33.9037 55.7959 46.0464 56.5444 50.042C56.9609 52.2651 57.988 55.5395 58.7079 58.5789C59.2341 60.8009 59.0587 60.2746 60.2281 64.1922C61.7292 69.2208 62.8991 74.2494 63.3272 69.7383C65.3737 48.1709 60.8027 26.4595 58.4733 19.0919Z" fill="#0FE498"/>
<path d="M51.1672 30.0721C51.0429 29.2278 50.934 29.1001 47.2503 31.0379C47.2503 36.4664 50.1848 50.9014 50.9334 54.897C51.7219 59.1062 52.977 62.9701 55.0271 68.6379C56.0211 71.3861 57.4728 76.7882 60.9912 78.8705C62.5115 79.7703 62.9555 75.0257 62.6869 74.4267C57.6583 63.2148 52.5754 39.6356 51.1672 30.0721Z" fill="#0FE498"/>
<path d="M39.4694 30.3974C39.4694 30.0464 42.9203 31.3924 46.1363 31.2151C46.1363 36.6482 49.1462 53.0141 49.9961 57.0013C50.931 61.3867 52.1592 64.4272 53.2121 69.8067C53.7711 72.6629 53.212 79.8054 49.9958 83.3722C48.8498 84.6431 43.4061 71.4815 42.6279 67.7017C40.1721 55.7734 39.4694 40.0633 39.4694 30.3974Z" fill="#0FE498"/>
<path d="M25.9859 58.8968C26.219 57.2069 28.4333 35.7633 27.9089 30.6355C28.5499 30.2859 30.531 28.7784 32.7453 28.7766C31.7547 35.7108 25.7528 60.5866 25.9859 58.8968Z" fill="#0FE498"/>
<path d="M7.80741 19.5542C8.5992 17.0498 10.4872 26.9741 14.1583 28.9052C14.1583 34.3151 10.4757 46.416 9.72969 50.3978C9.31465 52.6132 8.29106 55.8764 7.57368 58.9053C7.04924 61.1196 7.22403 60.5952 6.05864 64.4993C4.56276 69.5106 3.39685 74.5219 2.97027 70.0263C0.930795 48.5331 5.48608 26.8965 7.80741 19.5542Z" fill="#0FE498"/>
<path d="M15.0908 30.4947C15.2147 29.6532 15.3233 29.526 18.9943 31.4571C18.9943 36.867 16.0699 51.2523 15.3239 55.2341C14.538 59.4288 13.2873 63.2794 11.2443 68.9277C10.2537 71.6664 8.807 77.0499 5.30069 79.1251C3.78566 80.0217 3.34311 75.2935 3.61084 74.6965C8.62212 63.5232 13.6876 40.0253 15.0908 30.4947Z" fill="#0FE498"/>
<path d="M26.7463 30.8201C26.7463 30.4703 23.3073 31.8117 20.1024 31.635C20.1024 37.0494 17.1028 53.359 16.2558 57.3324C15.3242 61.7027 14.1001 64.7328 13.0509 70.0937C12.4938 72.94 13.051 80.058 16.2561 83.6125C17.3981 84.8791 22.8231 71.7628 23.5986 67.9959C26.046 56.1087 26.7463 40.4527 26.7463 30.8201Z" fill="#0FE498"/>
<path d="M66.3803 99.8085C66.7798 92.8203 64.7819 86.5708 61.8135 81.8552C61.0714 81.8552 59.3018 80.8326 58.5597 83.6733C57.8176 86.514 57.0755 96.286 57.0755 99.8085C57.0755 103.331 57.7036 111.422 57.9319 113.127C58.1602 114.831 62.841 119.012 64.0398 114.864C65.2386 110.717 65.9807 106.797 66.3803 99.8085Z" fill="#0FE498"/>
<path d="M48.1308 101.265C48.4268 94.3979 49.0956 90.2278 51.9898 85.5969C52.4668 84.8346 55.8857 82.0439 56.6093 84.8337C57.3328 87.6234 56.1999 97.3968 56.1999 100.856C56.1999 104.315 55.9076 112.667 55.1474 115.065C54.3875 117.461 50.879 122.198 48.9494 116.877C47.5048 112.894 47.8384 108.048 48.1308 101.265Z" fill="#0FE498"/>
<path d="M0.0509062 99.8446C-0.349481 92.8426 1.65245 86.5806 4.62675 81.8556C5.37033 81.8556 7.14347 80.8309 7.88704 83.6773C8.63062 86.5236 9.37419 96.3151 9.37419 99.8446C9.37419 103.374 8.74491 111.482 8.51612 113.189C8.28733 114.897 3.59719 119.086 2.39603 114.93C1.19487 110.775 0.451292 106.847 0.0509062 99.8446Z" fill="#0FE498"/>
<path d="M18.3452 101.304C18.0486 94.4233 17.3784 90.2449 14.4785 85.6047C14.0005 84.8409 10.5748 82.0446 9.84981 84.8399C9.12483 87.6352 10.26 97.4281 10.26 100.894C10.26 104.36 10.5529 112.729 11.3146 115.131C12.076 117.533 15.5915 122.279 17.525 116.948C18.9724 112.956 18.6382 108.101 18.3452 101.304Z" fill="#0FE498"/>
<path fill-rule="evenodd" clip-rule="evenodd" d="M22.6366 1.57504C18.5426 -0.0670813 14.8763 2.07674 11.7023 4.26967C11.5164 4.39816 11.0563 4.37626 10.9565 4.03387C10.7494 3.32377 11.2916 2.76328 11.8193 2.39856C15.0772 0.147616 19.4782 -1.06111 22.754 1.23267C22.8111 1.27725 22.8821 1.3543 22.8665 1.46256C22.8549 1.54201 22.7526 1.62808 22.6366 1.57504Z" fill="#0FE498"/>
<path fill-rule="evenodd" clip-rule="evenodd" d="M43.8651 1.62276C47.9643 -0.0214831 51.6354 2.12511 54.8134 4.32087C54.9996 4.44953 55.4603 4.42759 55.5602 4.08477C55.7676 3.37375 55.2247 2.81254 54.6963 2.44735C51.4342 0.193492 47.0276 -1.01679 43.7475 1.27995C43.6904 1.32458 43.6192 1.40173 43.6349 1.51013C43.6464 1.58969 43.7489 1.67587 43.8651 1.62276Z" fill="#0FE498"/>
</svg>
