<svg width="103" height="280" viewBox="0 0 103 280" fill="none" xmlns="http://www.w3.org/2000/svg">
<g filter="url(#filter0_i_3_317)">
<path fill-rule="evenodd" clip-rule="evenodd" d="M37.1463 10.459C37.8534 6.29168 41.0747 0.237784 50.7381 0.00195312C50.751 0.00163878 50.8366 0.0012597 50.9187 0.000895791C50.9934 0.000564535 51.0653 0.000245848 51.077 0C51.0888 0.000274402 51.2155 0.000598736 51.347 0.000935144C51.4881 0.00129631 51.6347 0.00167139 51.6503 0.00198013C61.3138 0.237804 64.536 6.2917 65.243 10.459C66.3377 16.9121 64.9283 20.4618 63.1829 24.8577C62.6356 26.2362 62.0552 27.6979 61.5087 29.3584C61.1532 30.4388 60.9815 32.0419 60.9315 33.835V33.8467V33.8489C60.9315 34.774 60.9315 37.7315 61.5087 39.4746C62.0895 41.2266 69.154 44.7293 69.5643 44.9053C69.6529 44.9433 70.0678 45.1567 70.6782 45.4709C72.6795 46.5007 76.7826 48.612 78.3827 49.167L79.9061 49.6436C80.8954 49.9614 81.8535 50.2202 82.7778 50.47C86.6061 51.5042 89.8549 52.382 92.3407 56.6436C95.3191 61.7501 98.5966 121.482 95.6698 141.384C95.6697 141.754 95.5994 142.739 95.3192 143.72C95.0068 144.813 95.0194 145.907 95.0257 146.462C95.0265 146.53 95.0272 146.589 95.0272 146.64C95.0272 146.815 95.0438 147.107 95.0645 147.471C95.0988 148.074 95.1444 148.875 95.1444 149.677C95.1445 150.24 95.3682 151.541 95.6001 152.89C95.8979 154.622 96.2092 156.432 96.078 156.859C95.0268 160.247 91.5229 164.451 91.1141 164.51C91.0249 164.523 90.9298 164.572 90.8161 164.63C90.4089 164.84 89.7648 165.172 88.3114 164.394C88.2798 164.377 88.2496 164.356 88.2206 164.332C88.1986 164.216 88.1644 164.105 88.1122 164C87.7788 163.167 87.4122 161.2 88.6122 160C90.1121 158.5 90.6121 157 90.6122 156C90.6122 153.745 89.2148 151.141 88.1122 155C87.7122 156.4 87.3097 157.559 86.8778 158.479C86.8576 158.47 86.8361 158.476 86.8124 158.5C86.0758 159.237 84.2583 160.109 84.6463 158.071C85.0847 155.77 85.8082 153.648 86.5089 151.592C87.6415 148.269 88.7146 145.121 88.4276 141.676V141.733C88.4235 130.811 86.172 119.991 83.9015 109.08C81.5902 97.9733 79.2594 86.7723 79.2596 75.2735C79.0894 75.5926 78.9097 75.9253 78.723 76.2711C76.8598 79.7211 74.2975 84.4655 73.4774 89.9326C72.5751 95.948 71.8428 108.621 72.1346 113.644C72.1347 116.211 72.5078 118.244 72.6428 118.98C72.6491 119.014 72.6548 119.046 72.66 119.074C72.7768 119.717 73.0106 120.651 73.3026 121.41C73.3722 121.591 73.5214 121.951 73.7131 122.414C74.3256 123.892 75.3717 126.417 75.6385 127.484C75.7253 127.831 75.944 128.481 76.2286 129.327C77.0951 131.902 78.572 136.291 78.7919 139.456C78.8329 139.768 78.9178 140.348 79.0354 141.15C79.7544 146.057 81.6944 159.299 82.2967 170.643C82.5677 175.745 82.6937 182.599 82.8086 188.844C82.933 195.609 83.0443 201.66 83.3124 204C83.5004 205.641 83.8823 207.591 84.2917 209.681C85.0045 213.32 85.8006 217.384 85.8006 220.983C85.8006 231.183 82.5474 246.586 81.0173 253.831C80.6024 255.796 80.3141 257.161 80.2518 257.659C80.1958 258.135 80.1193 258.678 80.0373 259.26C79.6967 261.675 79.2621 264.757 79.8124 266.5C80.4334 268.466 82.2121 269.935 84.0198 271.428C85.6774 272.797 87.3593 274.186 88.1952 275.997C89.5966 279.034 84.8071 279.676 83.5223 279.793C82.2362 279.91 73.0695 280.027 71.0253 278.684C69.2557 277.521 69.4119 276.139 69.4858 275.486C69.4972 275.385 69.5067 275.301 69.5067 275.238C69.5067 275.079 69.6286 274.561 69.7893 273.878C70.1005 272.554 70.5575 270.611 70.5575 269.456C70.5575 268.104 70.5283 266.756 70.4992 265.41C70.4702 264.069 70.4413 262.732 70.4413 261.397C70.4412 256.045 69.2182 251.303 67.9666 246.449C66.6552 241.364 65.3124 236.157 65.3124 230C65.3124 227.537 65.3946 225.006 65.4765 222.485C65.6803 216.212 65.8823 209.993 64.8124 205C62.4666 198.745 60.6488 191.216 58.804 183.576C58.2895 181.445 57.7728 179.306 57.2421 177.183C56.9488 176.009 51.2523 150.935 51.077 150C50.9018 150.934 45.4393 176.016 45.1473 177.184C44.6168 179.306 44.1003 181.445 43.586 183.575C41.741 191.215 39.923 198.744 37.577 205C36.5071 209.993 36.7091 216.211 36.9129 222.485C36.9948 225.006 37.077 227.537 37.077 230C37.077 236.157 35.7342 241.364 34.4227 246.45C33.1711 251.303 31.9481 256.046 31.9481 261.397C31.9481 262.732 31.9189 264.07 31.8897 265.41C31.8603 266.756 31.8309 268.104 31.8309 269.456C31.8309 270.611 32.2883 272.554 32.5998 273.878C32.7607 274.561 32.8827 275.079 32.8827 275.238C32.8827 275.301 32.8922 275.385 32.9036 275.486C32.9774 276.139 33.1336 277.521 31.3641 278.684C29.3201 280.027 20.1509 279.91 18.8661 279.793C17.5811 279.676 12.7926 279.034 14.1942 275.997C15.0301 274.186 16.712 272.797 18.3696 271.428C20.1773 269.935 21.9561 268.466 22.577 266.5C23.1271 264.758 22.6923 261.677 22.3516 259.263C22.2694 258.68 22.1927 258.136 22.1366 257.659C22.0743 257.161 21.7861 255.796 21.3714 253.832C19.8415 246.587 16.5887 231.183 16.5887 220.983C16.5888 217.384 17.3848 213.32 18.0977 209.681C18.507 207.591 18.889 205.641 19.077 204C19.3451 201.66 19.4564 195.609 19.5808 188.844C19.6957 182.599 19.8217 175.745 20.0926 170.643C20.695 159.297 22.6349 146.053 23.3534 141.148C23.4707 140.346 23.5555 139.768 23.5965 139.456C23.8163 136.291 25.2935 131.903 26.1603 129.328C26.4452 128.482 26.6641 127.831 26.7508 127.484C27.0177 126.417 28.0637 123.892 28.6762 122.414C28.8679 121.951 29.0172 121.591 29.0868 121.41C29.3787 120.651 29.6126 119.717 29.7294 119.074C29.7345 119.046 29.7403 119.014 29.7465 118.98C29.8816 118.244 30.2547 116.211 30.2547 113.644C30.5466 108.621 29.8133 95.948 28.911 89.9326C28.0907 84.4639 25.528 79.7184 23.6648 76.2681C23.4786 75.9234 23.2995 75.5917 23.1297 75.2734C23.13 86.7722 20.7989 97.9733 18.4874 109.08C16.2167 119.991 13.9649 130.811 13.9608 141.733V141.676C13.6738 145.12 14.7471 148.268 15.8799 151.591C16.5809 153.647 17.3046 155.77 17.743 158.071C18.0705 159.791 16.8288 159.436 15.9901 158.841C15.4887 157.87 15.0314 156.591 14.577 155C13.4744 151.141 12.077 153.745 12.077 156C12.077 157 12.5771 158.5 14.077 160C15.1389 161.062 14.9733 162.724 14.6903 163.67C14.5692 164.037 14.3817 164.354 14.077 164.51C12.1977 165.469 11.5767 165 11.2743 164.51C11.2361 164.448 11.0932 164.28 10.8776 164.025C9.85153 162.813 7.17872 159.657 6.31041 156.859C6.17932 156.432 6.4908 154.622 6.78878 152.89C7.02092 151.541 7.24487 150.24 7.24498 149.677C7.24498 148.875 7.29058 148.074 7.32489 147.47C7.34558 147.107 7.36216 146.815 7.36217 146.64C7.36217 146.589 7.36285 146.53 7.36362 146.462C7.37 145.907 7.38256 144.813 7.07017 143.72C6.78993 142.739 6.71963 141.754 6.71959 141.384C3.79282 121.482 7.06928 61.7501 10.0477 56.6436C12.5335 52.3818 15.7822 51.5042 19.6105 50.4699C20.5348 50.2202 21.493 49.9614 22.4823 49.6436L24.0057 49.167C25.6056 48.6121 29.7089 46.5007 31.7103 45.4708C32.3202 45.1569 32.735 44.9435 32.8241 44.9053C33.2329 44.7301 40.2985 41.2268 40.8797 39.4746C41.4574 37.7301 41.4579 34.7692 41.4579 33.8467V33.835C41.4079 32.0417 41.2352 30.4388 40.8797 29.3584C40.3334 27.6984 39.7532 26.237 39.2061 24.8589C37.4608 20.4624 36.0516 16.9127 37.1463 10.459Z" fill="#43CFFF" fill-opacity="0.05"/>
</g>
<path d="M60.0854 125.526C58.6844 126.666 55.1241 129.965 53.478 133.828L53.4695 133.848C52.8202 135.373 51.6475 138.126 52.1941 141.974C52.7384 145.806 54.0586 147.241 55.1719 148.429C56.0145 149.327 63.9525 152.852 68.8916 148.429C73.8307 144.005 74.4514 137.37 74.4514 135.158C74.4514 132.947 73.8307 126.31 68.8916 124.098C63.9525 121.886 61.8395 124.098 60.0854 125.526Z" fill="white" fill-opacity="0.05"/>
<path d="M42.9519 125.605C44.349 126.741 47.8994 130.031 49.5409 133.882L49.5494 133.902C50.1969 135.422 51.3664 138.166 50.8213 142.003C50.2785 145.822 48.9619 147.254 47.8517 148.437C47.0115 149.333 39.0955 152.847 34.1701 148.437C29.2447 144.028 28.6257 137.413 28.6257 135.208C28.6257 133.003 29.2447 126.386 34.1701 124.181C39.0955 121.976 41.2026 124.181 42.9519 125.605Z" fill="white" fill-opacity="0.05"/>
<path d="M58.7935 179.78C58.5596 178.084 56.3376 156.566 56.8639 151.421C56.2206 151.07 54.2327 149.557 52.0107 149.555C53.0048 156.514 59.0273 181.475 58.7935 179.78Z" fill="white" fill-opacity="0.05"/>
<path d="M77.0366 140.3C76.2421 137.787 74.3476 147.746 70.6638 149.683C70.6638 155.112 74.3592 167.255 75.1077 171.25C75.5242 173.473 76.5513 176.748 77.2712 179.787C77.7974 182.009 77.622 181.483 78.7914 185.4C80.2925 190.429 81.4624 195.458 81.8905 190.947C83.937 169.379 79.366 147.668 77.0366 140.3Z" fill="white" fill-opacity="0.05"/>
<path d="M69.7306 151.28C69.6062 150.436 69.4973 150.308 65.8136 152.246C65.8136 157.675 68.7481 172.11 69.4967 176.105C70.2852 180.314 71.5403 184.178 73.5904 189.846C74.5844 192.594 76.0361 197.996 79.5545 200.079C81.0748 200.978 81.5189 196.234 81.2502 195.635C76.2216 184.423 71.1387 160.844 69.7306 151.28Z" fill="white" fill-opacity="0.05"/>
<path d="M58.0327 151.606C58.0327 151.255 61.4836 152.601 64.6996 152.423C64.6996 157.856 67.7095 174.222 68.5594 178.209C69.4943 182.595 70.7225 185.635 71.7754 191.015C72.3344 193.871 71.7753 201.014 68.5591 204.58C67.4131 205.851 61.9695 192.69 61.1912 188.91C58.7354 176.982 58.0327 161.271 58.0327 151.606Z" fill="white" fill-opacity="0.05"/>
<path d="M44.5492 180.105C44.7823 178.415 46.9966 156.972 46.4722 151.844C47.1132 151.494 49.0943 149.987 51.3086 149.985C50.318 156.919 44.3162 181.795 44.5492 180.105Z" fill="white" fill-opacity="0.05"/>
<path d="M26.3707 140.762C27.1625 138.258 29.0505 148.182 32.7216 150.113C32.7216 155.523 29.039 167.624 28.293 171.606C27.878 173.821 26.8544 177.085 26.137 180.114C25.6126 182.328 25.7874 181.803 24.622 185.708C23.1261 190.719 21.9602 195.73 21.5336 191.235C19.4941 169.741 24.0494 148.105 26.3707 140.762Z" fill="white" fill-opacity="0.05"/>
<path d="M33.6541 151.703C33.778 150.861 33.8866 150.734 37.5576 152.665C37.5576 158.075 34.6332 172.46 33.8872 176.442C33.1014 180.637 31.8506 184.488 29.8076 190.136C28.817 192.875 27.3703 198.258 23.864 200.333C22.349 201.23 21.9064 196.502 22.1742 195.905C27.1854 184.731 32.2509 161.233 33.6541 151.703Z" fill="white" fill-opacity="0.05"/>
<path d="M45.3096 152.028C45.3096 151.678 41.8706 153.02 38.6657 152.843C38.6657 158.258 35.6661 174.567 34.8191 178.541C33.8875 182.911 32.6634 185.941 31.6142 191.302C31.0571 194.148 31.6143 201.266 34.8194 204.821C35.9615 206.087 41.3864 192.971 42.1619 189.204C44.6093 177.317 45.3096 161.661 45.3096 152.028Z" fill="white" fill-opacity="0.05"/>
<path d="M84.9436 221.017C85.3432 214.029 83.3452 207.779 80.3768 203.063C79.6347 203.063 77.8651 202.041 77.123 204.881C76.3809 207.722 75.6389 217.494 75.6389 221.017C75.6389 224.539 76.2669 232.631 76.4952 234.335C76.7236 236.039 81.4044 240.22 82.6031 236.072C83.8019 231.925 84.544 228.005 84.9436 221.017Z" fill="white" fill-opacity="0.05"/>
<path d="M66.6941 222.474C66.9901 215.606 67.659 211.436 70.5531 206.805C71.0301 206.043 74.449 203.252 75.1726 206.042C75.8961 208.832 74.7632 218.605 74.7632 222.064C74.7632 225.523 74.4709 233.876 73.7107 236.273C72.9508 238.67 69.4423 243.407 67.5127 238.086C66.0681 234.102 66.4017 229.256 66.6941 222.474Z" fill="white" fill-opacity="0.05"/>
<path d="M18.6142 221.053C18.2138 214.051 20.2158 207.789 23.1901 203.064C23.9336 203.064 25.7068 202.039 26.4503 204.885C27.1939 207.732 27.9375 217.523 27.9375 221.053C27.9375 224.582 27.3082 232.69 27.0794 234.398C26.8506 236.106 22.1605 240.294 20.9593 236.139C19.7582 231.983 19.0146 228.055 18.6142 221.053Z" fill="white" fill-opacity="0.05"/>
<path d="M36.9085 222.513C36.6119 215.631 35.9417 211.453 33.0418 206.813C32.5639 206.049 29.1381 203.253 28.4131 206.048C27.6881 208.843 28.8233 218.636 28.8233 222.102C28.8233 225.569 29.1162 233.937 29.8779 236.34C30.6393 238.741 34.1549 243.487 36.0883 238.156C37.5358 234.164 37.2015 229.309 36.9085 222.513Z" fill="white" fill-opacity="0.05"/>
<path d="M10.9063 128.576C6.76022 118.006 7.16898 106.677 8.3953 100.079C11.1399 105.159 16.6862 106.269 17.387 110.239C18.0877 114.21 17.5268 121.335 15.4028 128.459C13.4746 132.839 13.8126 138.549 12.8266 142.234C11.314 137.16 12.2483 132.897 10.9063 128.576Z" fill="white" fill-opacity="0.05"/>
<path d="M31.7125 121.597C30.0873 123.046 32.06 111.795 32.4579 110.152C33.4394 110.3 37.2791 118.93 37.6766 119.576C36.0862 120.222 33.5511 119.957 31.7125 121.597Z" fill="white" fill-opacity="0.05"/>
<path d="M14.5172 53.1937C15.4515 52.3762 18.021 51.4419 22.1671 51.4419C23.7708 51.9096 27.0453 56.5874 27.8639 59.1017C28.3901 63.4871 23.3614 66.82 21.5489 68.0479C20.0809 69.0424 17.0466 70.3868 15.8612 71.2391C14.7038 72.0714 13.2325 72.8147 10.1375 74.2162C8.50245 66.0408 9.37839 63.9969 10.1375 60.7852C10.8967 57.5734 13.5829 54.0113 14.5172 53.1937Z" fill="white" fill-opacity="0.05"/>
<path d="M17.8657 100.618C21.7249 100.618 24.8231 73.3119 23.1741 69.2736C21.6047 70.6153 12.0751 73.9585 9.85341 76.6437C7.78566 79.1429 8.18921 95.328 9.85263 97.3486C11.7261 99.6244 12.6628 88.5747 15.0018 88.5746C18.2176 89.6272 15.8455 100.618 17.8657 100.618Z" fill="white" fill-opacity="0.05"/>
<path d="M42.1573 77.2285C40.742 77.4107 31.2056 82.5187 30.1335 83.3239C30.1334 85.5012 32.5416 96.8639 32.5397 106.111C32.5393 107.749 37.5679 116.228 39.3829 118.912C45.2885 110.321 49.1045 94.3859 49.1045 87.9021C49.1045 85.583 43.3277 77.0778 42.1573 77.2285Z" fill="white" fill-opacity="0.05"/>
<path d="M61.6584 77.2255C63.073 77.4077 72.6042 82.5128 73.6757 83.3176C73.6758 85.4937 71.2689 96.8502 71.2708 106.092C71.2712 107.729 66.2453 116.203 64.4313 118.887C58.5289 110.3 54.7151 94.3736 54.7151 87.8933C54.7151 85.5755 60.4887 77.0749 61.6584 77.2255Z" fill="white" fill-opacity="0.05"/>
<path d="M61.7547 41.5172C66.0208 43.5041 72.683 47.0712 78.3517 50.227C67.4818 70.6788 57.0795 74.419 51.9368 87.3949C52.2874 65.9474 51.5268 35.9672 52.1696 31.7012C52.1696 30.4739 52.8849 26.4799 54.6518 27.1809C58.918 28.8733 60.0599 40.2877 61.7547 41.5172Z" fill="white" fill-opacity="0.05"/>
<path d="M41.1112 41.526C36.8484 43.5114 30.1915 47.0756 24.5273 50.2288C35.3886 70.6645 45.7827 74.4017 50.9213 87.3673C50.5709 65.9368 51.331 35.9805 50.6886 31.7178C50.6886 30.4915 49.9739 26.5006 48.2084 27.2011C43.9457 28.8922 42.8046 40.2975 41.1112 41.526Z" fill="white" fill-opacity="0.05"/>
<path fill-rule="evenodd" clip-rule="evenodd" d="M41.1999 122.783C37.1059 121.141 33.4396 123.285 30.2656 125.478C30.0797 125.606 29.6196 125.584 29.5198 125.242C29.3127 124.532 29.8549 123.971 30.3826 123.607C33.6405 121.356 38.0415 120.147 41.3173 122.441C41.3744 122.485 41.4455 122.562 41.4298 122.671C41.4183 122.75 41.3159 122.836 41.1999 122.783Z" fill="white" fill-opacity="0.05"/>
<path d="M91.8308 128.631C95.9823 118.048 95.573 106.704 94.3451 100.097C91.5969 105.184 86.0434 106.295 85.3418 110.271C84.6401 114.247 85.2018 121.381 87.3285 128.514C89.2592 132.9 88.9208 138.617 89.9081 142.307C91.4226 137.226 90.4871 132.958 91.8308 128.631Z" fill="white" fill-opacity="0.05"/>
<path d="M71.9278 121.642C73.5551 123.093 71.5797 111.827 71.1814 110.182C70.1986 110.33 66.354 118.971 65.9559 119.618C67.5484 120.265 70.0868 120 71.9278 121.642Z" fill="white" fill-opacity="0.05"/>
<path d="M88.2168 53.1506C87.2812 52.332 84.7085 51.3964 80.5571 51.3964C78.9512 51.8648 75.6725 56.5486 74.8529 59.0662C74.326 63.4572 79.3612 66.7944 81.176 68.0239C82.6459 69.0197 85.6842 70.3658 86.871 71.2192C88.03 72.0526 89.5031 72.7969 92.6021 74.2002C94.2393 66.0142 93.3622 63.9677 92.6021 60.7518C91.842 57.5359 89.1523 53.9692 88.2168 53.1506Z" fill="white" fill-opacity="0.05"/>
<path d="M84.8612 100.638C80.9971 100.638 77.8948 73.2958 79.546 69.2523C81.1174 70.5957 90.6593 73.9432 92.8839 76.6319C94.9543 79.1343 94.5502 95.3403 92.8847 97.3636C91.0087 99.6423 90.0709 88.5783 87.7288 88.5782C84.5089 89.6322 86.884 100.638 84.8612 100.638Z" fill="white" fill-opacity="0.05"/>
<path fill-rule="evenodd" clip-rule="evenodd" d="M62.4284 122.831C66.5276 121.187 70.1987 123.333 73.3767 125.529C73.563 125.658 74.0236 125.636 74.1235 125.293C74.3309 124.582 73.788 124.021 73.2596 123.656C69.9975 121.402 65.5909 120.191 62.3108 122.488C62.2537 122.533 62.1825 122.61 62.1982 122.718C62.2097 122.798 62.3122 122.884 62.4284 122.831Z" fill="white" fill-opacity="0.05"/>
<path d="M39.5431 75.297C39.5431 73.135 30.3372 63.4129 29.2262 64.0641C28.1151 64.7156 23.7082 68.5249 25.5755 74.8738C26.1587 76.8567 27.6918 80.7994 29.3848 80.7994C31.0778 80.7994 39.5431 76.9901 39.5431 75.297Z" fill="white" fill-opacity="0.05"/>
<path d="M63.2776 74.945C63.2776 72.9052 72.1865 63.7326 73.2618 64.347C74.337 64.9616 78.6018 68.5556 76.7946 74.5456C76.2302 76.4165 74.7466 80.1363 73.1082 80.1363C71.4698 80.1363 63.2776 76.5423 63.2776 74.945Z" fill="white" fill-opacity="0.05"/>
<defs>
<filter id="filter0_i_3_317" x="5.57715" y="0" width="91.2349" height="280.871" filterUnits="userSpaceOnUse" color-interpolation-filters="sRGB">
<feFlood flood-opacity="0" result="BackgroundImageFix"/>
<feBlend mode="normal" in="SourceGraphic" in2="BackgroundImageFix" result="shape"/>
<feColorMatrix in="SourceAlpha" type="matrix" values="0 0 0 0 0 0 0 0 0 0 0 0 0 0 0 0 0 0 127 0" result="hardAlpha"/>
<feOffset dy="1.01149"/>
<feGaussianBlur stdDeviation="1.21379"/>
<feComposite in2="hardAlpha" operator="arithmetic" k2="-1" k3="1"/>
<feColorMatrix type="matrix" values="0 0 0 0 1 0 0 0 0 1 0 0 0 0 1 0 0 0 0.5 0"/>
<feBlend mode="normal" in2="shape" result="effect1_innerShadow_3_317"/>
</filter>
</defs>
</svg>
