<svg width="103" height="75" viewBox="0 0 103 75" fill="none" xmlns="http://www.w3.org/2000/svg">
<path d="M10.9063 60.8151C6.7602 50.2455 7.16897 38.9167 8.39528 32.318C11.1399 37.3984 16.6862 38.5079 17.387 42.4788C18.0877 46.4497 17.5267 53.574 15.4028 60.6983C13.4746 65.078 13.8126 70.7883 12.8265 74.4734C11.314 69.3993 12.2483 65.1364 10.9063 60.8151Z" fill="#0FE498"/>
<path d="M17.8657 32.8578C21.7249 32.8578 24.8231 5.55126 23.1741 1.51299C21.6047 2.85462 12.0751 6.19782 9.85341 8.88305C7.78566 11.3822 8.18921 27.5674 9.85263 29.588C11.7261 31.8638 12.6628 20.8141 15.0018 20.814C18.2176 21.8666 15.8455 32.8578 17.8657 32.8578Z" fill="#0FE498"/>
<path d="M91.8308 60.8705C95.9823 50.2872 95.573 38.9438 94.3451 32.3366C91.5969 37.4236 86.0434 38.5345 85.3418 42.5106C84.6401 46.4866 85.2018 53.6201 87.3285 60.7536C89.2592 65.1389 88.9208 70.8565 89.9081 74.5465C91.4226 69.4658 90.4871 65.1974 91.8308 60.8705Z" fill="#0FE498"/>
<path d="M84.8612 32.877C80.9971 32.877 77.8948 5.53518 79.546 1.49168C81.1174 2.83505 90.6593 6.18256 92.8839 8.87126C94.9543 11.3736 94.5502 27.5797 92.8847 29.6029C91.0087 31.8817 90.0709 20.8177 87.7288 20.8176C84.5089 21.8715 86.884 32.877 84.8612 32.877Z" fill="#0FE498"/>
</svg>
