<svg width="68" height="92" viewBox="0 0 68 92" fill="none" xmlns="http://www.w3.org/2000/svg">
<path d="M24.1632 50.1296C22.7479 50.3118 13.2114 55.4197 12.1393 56.225C12.1393 58.4023 14.5475 69.765 14.5455 79.0121C14.5452 80.6501 19.5738 89.1287 21.3888 91.8134C27.2944 83.2222 31.1103 67.287 31.1103 60.8032C31.1103 58.4841 25.3335 49.9789 24.1632 50.1296Z" fill="#0FE498"/>
<path d="M43.6643 50.1266C45.0788 50.3087 54.6101 55.4139 55.6816 56.2187C55.6816 58.3948 53.2747 69.7513 53.2767 78.9934C53.277 80.6305 48.2512 89.1044 46.4372 91.7877C40.5348 83.2012 36.7209 67.2746 36.7209 60.7944C36.7209 58.4766 42.4946 49.976 43.6643 50.1266Z" fill="#0FE498"/>
<path d="M43.7606 14.4182C48.0267 16.4052 54.6889 19.9723 60.3576 23.128C49.4877 43.5799 39.0854 47.3201 33.9426 60.296C34.2933 38.8484 33.5326 8.86831 34.1755 4.60223C34.1755 3.37499 34.8908 -0.61907 36.6577 0.0819127C40.9238 1.77441 42.0658 13.1888 43.7606 14.4182Z" fill="#0FE498"/>
<path d="M23.117 14.427C18.8543 16.4124 12.1974 19.9766 6.5332 23.1299C17.3944 43.5655 27.7885 47.3027 32.9272 60.2683C32.5768 38.8378 33.3368 8.88152 32.6945 4.61884C32.6945 3.39257 31.9798 -0.598315 30.2143 0.102111C25.9515 1.79326 24.8104 13.1986 23.117 14.427Z" fill="#0FE498"/>
<path d="M21.549 48.1981C21.549 46.0361 12.3431 36.314 11.232 36.9652C10.1209 37.6166 5.71403 41.426 7.58139 47.7748C8.1646 49.7577 9.69767 53.7005 11.3907 53.7005C13.0837 53.7005 21.549 49.8911 21.549 48.1981Z" fill="#0FE498"/>
<path d="M45.2835 47.846C45.2835 45.8063 54.1924 36.6337 55.2676 37.2481C56.3429 37.8627 60.6076 41.4567 58.8005 47.4467C58.2361 49.3175 56.7525 53.0374 55.1141 53.0374C53.4757 53.0374 45.2835 49.4434 45.2835 47.846Z" fill="#0FE498"/>
</svg>
