<svg width="85" height="23" viewBox="0 0 85 23" fill="none" xmlns="http://www.w3.org/2000/svg">
<path d="M5.30581 1.79731C6.24014 0.979773 8.80955 0.0454407 12.9557 0.0454407C14.5594 0.513217 17.8339 5.19098 18.6525 7.70527C19.1787 12.0907 14.15 15.4236 12.3375 16.6515C10.8695 17.646 7.83516 18.9904 6.64982 19.8427C5.49236 20.6749 4.0211 21.4183 0.926123 22.8198C-0.708958 14.6444 0.166979 12.6005 0.926123 9.38876C1.68527 6.177 4.37147 2.61485 5.30581 1.79731Z" fill="#0FE498"/>
<path d="M79.0054 1.75414C78.0698 0.935539 75.4971 0 71.3457 0C69.7398 0.46838 66.4611 5.15218 65.6415 7.66973C65.1146 12.0608 70.1497 15.398 71.9646 16.6275C73.4345 17.6233 76.4728 18.9694 77.6596 19.8228C78.8186 20.6561 80.2917 21.4005 83.3907 22.8038C85.0279 14.6178 84.1508 12.5713 83.3907 9.35539C82.6306 6.13948 79.9409 2.57273 79.0054 1.75414Z" fill="#0FE498"/>
</svg>
