<svg width="89" height="71" viewBox="0 0 89 71" fill="none" xmlns="http://www.w3.org/2000/svg">
<path d="M85.398 55.3131C89.6547 44.185 89.235 32.2577 87.976 25.3103C85.1582 30.6592 80.587 35.7665 79.8676 39.9472C79.1482 44.1279 78.601 47.6895 80.7816 55.1901C82.7612 59.8012 82.4142 65.8132 83.4266 69.6931C84.9795 64.3508 84.0202 59.8627 85.398 55.3131Z" fill="#0FE498"/>
<path d="M3.39886 55.8824C-0.806204 44.8893 -0.391626 33.1066 0.852126 26.2434C3.63576 31.5274 8.15151 36.5728 8.86222 40.7028C9.57294 44.8329 10.1135 48.3512 7.95929 55.761C6.00369 60.3161 6.34645 66.2552 5.34641 70.0881C3.81232 64.8106 4.75994 60.3769 3.39886 55.8824Z" fill="#0FE498"/>
<path d="M79.6609 1.75442C76.7262 -1.0556 74.9715 0.585504 74.1506 3.51301C73.6399 5.3337 73.6819 8.61349 74.1506 12.5996C74.7749 17.909 76.2609 22.096 78.8402 24.3822C79.3899 24.8694 82.4746 28.0752 83.9401 19.3409C85.4056 10.6066 81.068 3.10324 79.6609 1.75442Z" fill="#0FE498"/>
<path d="M9.32639 1.73632C12.3039 -1.02616 14.0261 0.647595 14.7941 3.59313C15.2718 5.42505 15.1726 8.70829 14.6352 12.6913C13.9195 17.9966 12.3635 22.1631 9.74983 24.4072C9.19283 24.8855 6.05868 28.0417 4.74899 19.2707C3.43931 10.4997 7.89873 3.06236 9.32639 1.73632Z" fill="#0FE498"/>
<path d="M87.2232 13.7756C87.2818 10.5515 85.9335 4.51371 85.4646 1.81721L81.1267 0C82.8225 2.33906 83.7017 5.61146 84.7534 9.52624L84.7611 9.555C85.8163 13.4825 85.4646 18.9928 85.1715 23.0961C87.0473 21.1031 87.1645 16.9997 87.2232 13.7756Z" fill="#0FE498"/>
<path d="M1.40075 13.7636C1.34215 10.5558 2.68999 4.54866 3.1588 1.86585L7.49534 0.0578613C5.80004 2.38505 4.92116 5.64084 3.86975 9.53575L3.86202 9.56436C2.80719 13.4719 3.1588 18.9542 3.45181 23.0368C1.57655 21.0538 1.45935 16.9713 1.40075 13.7636Z" fill="#0FE498"/>
</svg>
