<svg width="65" height="25" viewBox="0 0 65 25" fill="none" xmlns="http://www.w3.org/2000/svg">
<path d="M34.8617 2.10394C33.3184 4.61345 33.6042 13.796 33.6042 18.4158C34.2901 20.8682 36.1192 23.8341 39.8345 24.2334C43.5498 24.6326 63.8982 19.2714 64.2983 15.9634C64.6984 12.6554 63.3266 9.97478 61.3832 7.1801C59.2975 4.18077 55.6102 0.564007 53.4382 0.2218C51.2662 -0.120406 36.405 -0.405578 34.8617 2.10394Z" fill="#0FE498"/>
<path d="M29.5062 2.10394C31.0494 4.61345 30.7637 13.796 30.7637 18.4158C30.0778 20.8682 28.2487 23.8341 24.5334 24.2334C20.8181 24.6326 0.469707 19.2714 0.0695972 15.9634C-0.330511 12.6554 1.04129 9.97478 2.98468 7.1801C5.07037 4.18077 8.75767 0.564007 10.9297 0.2218C13.1017 -0.120406 27.9629 -0.405578 29.5062 2.10394Z" fill="#0FE498"/>
</svg>
