<svg width="85" height="23" viewBox="0 0 85 23" fill="none" xmlns="http://www.w3.org/2000/svg">
<path d="M5.32614 1.75859C6.26406 0.937914 8.84332 0 13.0053 0C13.5329 0.879295 17.1522 1.75859 19.2038 2.63788C15.7453 3.51718 11.7676 8.69914 11.0072 10.4343C10.2928 12.0646 6.79163 17.879 5.97096 19.0514C5.15028 20.2238 4.03651 21.4548 0.92967 22.8617C-0.711679 14.6549 0.167616 12.6032 0.92967 9.37914C1.69172 6.15506 4.38823 2.57926 5.32614 1.75859Z" fill="#0FE498"/>
<path d="M79.8224 2.02543C78.9111 1.22174 76.4053 0.303223 72.3618 0.303223C71.8492 1.16433 68.3329 2.02543 66.3396 2.88654C69.6998 3.74764 73.5643 8.82241 74.303 10.5217C74.9971 12.1182 78.3986 17.8124 79.1959 18.9605C79.9932 20.1086 81.0753 21.3142 84.0937 22.692C85.6883 14.655 84.8341 12.6457 84.0937 9.48835C83.3533 6.33096 80.7336 2.82913 79.8224 2.02543Z" fill="#0FE498"/>
</svg>
