<svg width="65" height="137" viewBox="0 0 65 137" fill="none" xmlns="http://www.w3.org/2000/svg">
<path d="M58.7696 24.0896C59.2361 19.4253 56.4375 5.89875 54.1053 2.16729C52.706 -3.42989 48.9746 22.6903 48.9746 25.9553C48.9746 29.2203 54.0387 52.5421 54.5718 50.6762C56.4375 44.1462 58.3032 28.7539 58.7696 24.0896Z" fill="#0FE498"/>
<path d="M47.5757 65.6025C45.7099 64.6696 42.9113 60.0053 41.9785 53.4753C41.9785 50.2102 45.7099 26.8887 47.5757 31.0865C48.8464 33.9458 51.3071 44.6129 53.1728 52.5424C55.0015 60.3142 49.4414 66.5354 47.5757 65.6025Z" fill="#0FE498"/>
<path d="M59.2365 63.2703C58.3037 62.3374 56.9044 59.5388 55.5051 52.0759C55.9715 48.3445 58.7701 32.0194 60.1694 30.6201C63.9008 57.6731 60.1694 64.2032 59.2365 63.2703Z" fill="#0FE498"/>
<path d="M5.73275 24.0896C5.28032 19.4253 7.99489 5.89875 10.257 2.16729C11.6143 -3.42989 15.2337 22.6903 15.2337 25.9553C15.2337 29.2203 10.3217 52.5421 9.8046 50.6762C7.99489 44.1462 6.18517 28.7539 5.73275 24.0896Z" fill="#0FE498"/>
<path d="M16.5907 65.6025C18.4005 64.6696 21.115 60.0053 22.0199 53.4753C22.0199 50.2102 18.4005 26.8887 16.5907 31.0865C15.3581 33.9458 12.9713 44.6129 11.1616 52.5424C9.38788 60.3142 14.781 66.5354 16.5907 65.6025Z" fill="#0FE498"/>
<path d="M5.28033 63.2702C6.18519 62.3374 7.54248 59.5388 8.89976 52.0759C8.44733 48.3444 5.73276 32.0193 4.37548 30.62C0.756048 57.673 4.37548 64.2031 5.28033 63.2702Z" fill="#0FE498"/>
<path d="M63.9007 108.048C62.9678 111.313 60.1692 121.108 58.3035 136.034C56.4377 127.172 57.822 111.012 58.3035 105.716C58.7699 100.585 60.1692 90.3234 62.0349 82.394C65.7664 87.9912 64.8335 104.783 63.9007 108.048Z" fill="#0FE498"/>
<path d="M53.6393 108.981C52.7064 107.582 49.9078 93.1225 49.4414 88.4581C48.042 91.2567 48.042 97.3203 48.0421 100.585C48.0421 103.884 48.5085 112.246 49.9078 115.978C50.3742 114.112 50.8407 109.914 53.6393 108.981Z" fill="#0FE498"/>
<path d="M53.6395 111.779C53.6395 114.578 54.1059 123.44 53.6395 134.168C52.2402 131.37 50.8409 122.974 50.8409 118.776C50.8409 114.578 53.6395 108.981 53.6395 111.779Z" fill="#0FE498"/>
<path d="M0.839298 108.041C1.77766 111.326 4.59276 121.178 6.46949 136.192C8.34622 127.278 6.95376 111.023 6.46949 105.695C6.00036 100.534 4.59279 90.2123 2.71603 82.2362C-1.03743 87.8664 -0.0990672 104.757 0.839298 108.041Z" fill="#0FE498"/>
<path d="M11.1609 108.98C12.0993 107.572 14.9144 93.0276 15.3836 88.3358C16.7912 91.1508 16.7912 97.2502 16.7911 100.535C16.7911 103.852 16.322 112.264 14.9144 116.018C14.4452 114.141 13.976 109.918 11.1609 108.98Z" fill="#0FE498"/>
<path d="M11.1608 111.795C11.1608 114.61 10.6917 123.524 11.1608 134.315C12.5684 131.5 13.9759 123.055 13.9759 118.832C13.9759 114.61 11.1608 108.979 11.1608 111.795Z" fill="#0FE498"/>
<path d="M50.6197 4.12494C51.0278 3.60028 52.7268 -1.10884 52.4945 0.749827C52.2704 2.54199 47.6658 12.9556 44.9945 23.6251C42.1241 35.0901 41.2717 52.8211 40.4947 54.375C40.3067 54.5004 40.8422 51.2089 40.8697 46.5C40.9101 39.571 38.7135 37.5 42.3695 22.8751C43.0458 20.1699 47.9947 7.5 50.6197 4.12494Z" fill="#0FE498"/>
<path d="M14.225 3.85562C13.8257 3.32427 12.1632 -1.4449 12.3906 0.437465C12.6098 2.25248 17.1153 12.7989 19.729 23.6044C22.5376 35.2156 23.3716 53.1728 24.1318 54.7465C24.3158 54.8735 23.7918 51.5401 23.7649 46.7711C23.7254 39.7537 25.8746 37.6563 22.2974 22.8449C21.6357 20.1052 16.7934 7.27372 14.225 3.85562Z" fill="#0FE498"/>
</svg>
